<?xml version="1.0" encoding="UTF-8"?>
<!DOCTYPE svg PUBLIC "-//W3C//DTD SVG 1.1//EN" "http://www.w3.org/Graphics/SVG/1.1/DTD/svg11.dtd">
<svg version="1.1" xmlns="http://www.w3.org/2000/svg" xmlns:xlink="http://www.w3.org/1999/xlink" x="0" y="0" width="871.144" height="812.835" viewBox="0, 0, 871.144, 812.835">
  <g id="Layer_1">
    <path d="M704.932,728.712 L467.432,724.962 L462.432,708.712 C427.432,719.962 368.682,714.962 368.682,714.962 C372.432,701.212 377.432,677.462 376.182,661.212 C374.932,644.962 369.932,639.962 367.432,634.962 C387.432,634.962 418.682,629.962 423.682,631.212 C424.932,627.462 433.682,622.462 439.932,623.712 C444.932,607.462 481.182,526.212 486.182,521.212 C491.182,516.212 501.182,512.462 504.932,513.712 C512.432,503.712 544.932,481.212 544.932,481.212 L552.432,472.462 L581.182,452.462 C584.932,452.462 728.682,414.962 728.682,414.962 C728.682,414.962 742.432,423.712 743.682,429.962 L746.182,438.712 C746.182,438.712 786.182,483.712 796.182,501.212 C798.682,508.712 747.432,707.462 743.682,716.212 C739.932,724.962 704.932,728.712 704.932,728.712" fill="#464D5A" id="path833"/>
    <path d="M704.932,728.712 L467.432,724.962 L462.432,708.712 C427.432,719.962 368.682,714.962 368.682,714.962 C372.432,701.212 377.432,677.462 376.182,661.212 C374.932,644.962 369.932,639.962 367.432,634.962 C387.432,634.962 418.682,629.962 423.682,631.212 C424.932,627.462 433.682,622.462 439.932,623.712 C444.932,607.462 481.182,526.212 486.182,521.212 C491.182,516.212 501.182,512.462 504.932,513.712 C512.432,503.712 544.932,481.212 544.932,481.212 L552.432,472.462 L581.182,452.462 C584.932,452.462 728.682,414.962 728.682,414.962 C728.682,414.962 742.432,423.712 743.682,429.962 L746.182,438.712 C746.182,438.712 786.182,483.712 796.182,501.212 C798.682,508.712 747.432,707.462 743.682,716.212 C739.932,724.962 704.932,728.712 704.932,728.712 z" fill-opacity="0" stroke="#1A1919" stroke-width="7.5" stroke-linecap="round" stroke-linejoin="round" id="path835"/>
    <path d="M354.932,643.712 C354.932,643.712 348.682,634.962 344.932,632.462 C341.182,629.962 307.432,619.962 298.682,619.962 C289.932,619.962 262.432,626.212 262.432,626.212 C262.432,626.212 277.432,674.962 281.182,678.712 C284.932,682.462 294.932,709.962 297.432,713.712 C299.932,717.462 359.932,718.712 359.932,718.712 C364.932,698.712 369.932,659.962 354.932,643.712" fill="#F4BB9D" id="path837"/>
    <path d="M354.932,643.712 C354.932,643.712 348.682,634.962 344.932,632.462 C341.182,629.962 307.432,619.962 298.682,619.962 C289.932,619.962 262.432,626.212 262.432,626.212 C262.432,626.212 277.432,674.962 281.182,678.712 C284.932,682.462 294.932,709.962 297.432,713.712 C299.932,717.462 359.932,718.712 359.932,718.712 C364.932,698.712 369.932,659.962 354.932,643.712 z M337.432,668.712 C329.932,674.962 321.182,678.712 308.682,674.962" fill-opacity="0" stroke="#1A1919" stroke-width="7.5" stroke-linecap="round" stroke-linejoin="round" id="path839"/>
    <path d="M351.193,634.972 C353.693,638.722 359.943,647.472 359.943,657.472 C359.943,667.472 357.443,722.472 357.443,722.472 L382.443,722.472 L393.693,664.972 L373.693,636.222 L351.193,634.972" fill="#FFFFFE" id="path841"/>
    <path d="M351.193,634.972 C353.693,638.722 359.943,647.472 359.943,657.472 C359.943,667.472 357.443,722.472 357.443,722.472 L382.443,722.472 L393.693,664.972 L373.693,636.222 z" fill-opacity="0" stroke="#1A1919" stroke-width="7.5" stroke-linecap="round" stroke-linejoin="round" id="path843"/>
    <path d="M589.932,429.962 C587.432,433.712 573.682,456.212 572.432,459.962 C571.182,463.712 564.932,491.212 562.432,503.712 C559.932,516.212 553.682,584.962 553.682,592.462 C564.932,573.712 654.932,492.462 663.682,483.712 C671.182,474.962 728.682,422.462 728.682,422.462 L723.682,407.462 L589.932,429.962" fill="#FFFFFE" id="path845"/>
    <path d="M589.932,429.962 C587.432,433.712 573.682,456.212 572.432,459.962 C571.182,463.712 564.932,491.212 562.432,503.712 C559.932,516.212 553.682,584.962 553.682,592.462 C564.932,573.712 654.932,492.462 663.682,483.712 C671.182,474.962 728.682,422.462 728.682,422.462 L723.682,407.462 z" fill-opacity="0" stroke="#1A1919" stroke-width="7.5" stroke-linecap="round" stroke-linejoin="round" id="path847"/>
    <path d="M601.182,442.462 C596.182,446.212 586.182,453.712 586.182,453.712 C586.182,453.712 579.932,476.212 581.182,483.712 C578.682,487.462 563.682,513.712 559.932,523.712 L559.737,524.252 C556.977,549.302 553.682,587.017 553.682,592.462 C558.422,584.562 577.148,565.567 597.883,545.577 C601.747,523.672 604.523,497.442 606.182,489.962 C608.682,483.712 631.182,464.962 632.432,459.962 C633.682,454.962 628.682,447.462 628.682,447.462 C621.182,448.712 606.182,444.962 601.182,442.462" fill="#31A29E" id="path849"/>
    <path d="M601.182,442.462 C596.182,446.212 586.182,453.712 586.182,453.712 C586.182,453.712 579.932,476.212 581.182,483.712 C578.682,487.462 563.682,513.712 559.932,523.712 L559.737,524.252 C556.977,549.302 553.682,587.017 553.682,592.462 C558.422,584.562 577.148,565.567 597.883,545.577 C601.747,523.672 604.523,497.442 606.182,489.962 C608.682,483.712 631.182,464.962 632.432,459.962 C633.682,454.962 628.682,447.462 628.682,447.462 C621.182,448.712 606.182,444.962 601.182,442.462 z" fill-opacity="0" stroke="#1A1919" stroke-width="7.5" stroke-linecap="round" stroke-linejoin="round" id="path851"/>
    <path d="M630.107,452.462 C630.107,452.462 649.708,478.712 651.018,487.462 M586.182,453.712 L573.682,466.212" fill-opacity="0" stroke="#1A1919" stroke-width="7.67" stroke-linecap="round" stroke-linejoin="round" id="path853"/>
    <path d="M621.182,674.962 L614.932,678.712 C614.932,678.712 609.932,756.212 618.682,762.462 C627.432,768.712 626.182,764.962 626.182,764.962 C626.182,764.962 642.432,684.962 624.932,674.962" fill="#373C47" id="path855"/>
    <path d="M621.182,674.962 L614.932,678.712 C614.932,678.712 609.932,756.212 618.682,762.462 C627.432,768.712 626.182,764.962 626.182,764.962 C626.182,764.962 642.432,684.962 624.932,674.962" fill-opacity="0" stroke="#1A1919" stroke-width="7.5" stroke-linecap="round" stroke-linejoin="round" id="path857"/>
    <path d="M581.182,483.712 C581.182,483.712 596.182,487.462 602.432,486.212" fill-opacity="0" stroke="#1A1919" stroke-width="7.67" stroke-linecap="round" stroke-linejoin="round" id="path859"/>
    <path d="M544.932,481.212 L542.432,491.212 L549.932,494.962 L527.432,509.962 C527.432,514.962 532.432,584.962 539.932,602.462 M506.182,522.462 C503.682,528.712 477.432,641.212 474.932,668.712 M744.932,434.962 C744.932,434.962 746.182,469.962 743.682,477.462 L689.932,484.962 C696.182,488.712 716.182,504.962 718.682,508.712 C707.432,517.462 577.432,584.962 543.682,617.462 C543.682,617.462 534.932,621.212 533.682,624.962 C532.432,628.712 524.932,652.462 523.682,663.712 M553.682,592.462 C553.682,592.462 536.182,617.462 533.682,624.962 M627.432,589.962 C644.932,589.962 698.682,591.212 713.682,591.212 M563.682,634.962 C563.682,640.487 559.213,644.962 553.682,644.962 C548.167,644.962 543.682,640.487 543.682,634.962 C543.682,629.442 548.167,624.962 553.682,624.962 C559.213,624.962 563.682,629.442 563.682,634.962 z" fill-opacity="0" stroke="#1A1919" stroke-width="7.5" stroke-linecap="round" stroke-linejoin="round" id="path861"/>
    <path d="M84.433,726.652 L79.183,731.027 L81.808,748.522 C81.808,748.522 367.932,808.017 370.557,808.897 C373.178,809.777 369.682,787.897 369.682,787.897 L373.178,785.277 L84.433,726.652" fill="#CEC9BF" id="path863"/>
    <path d="M84.433,726.652 L79.183,731.027 L81.808,748.522 C81.808,748.522 367.932,808.017 370.557,808.897 C373.178,809.777 369.682,787.897 369.682,787.897 L373.178,785.277 z" fill-opacity="0" stroke="#1A1919" stroke-width="7.875" stroke-linecap="round" stroke-linejoin="round" id="path865"/>
    <path d="M116.812,738.897 C116.812,738.897 111.562,746.772 115.058,754.652 L155.303,763.402 C152.678,758.152 153.562,753.772 156.188,747.647 C156.188,745.902 116.812,738.897 116.812,738.897" fill="#4D4E4C" id="path867"/>
    <path d="M116.812,738.897 C116.812,738.897 111.562,746.772 115.058,754.652 L155.303,763.402 C152.678,758.152 153.562,753.772 156.188,747.647 C156.188,745.902 116.812,738.897 116.812,738.897 z" fill-opacity="0" stroke="#1A1919" stroke-width="7.875" stroke-linecap="round" stroke-linejoin="round" id="path869"/>
    <path d="M262.057,765.147 C259.432,766.897 260.303,780.902 262.932,785.277 L307.553,794.027 C302.307,788.772 305.812,774.772 307.553,773.897 L262.057,765.147" fill="#4D4E4C" id="path871"/>
    <path d="M262.057,765.147 C259.432,766.897 260.303,780.902 262.932,785.277 L307.553,794.027 C302.307,788.772 305.812,774.772 307.553,773.897 z" fill-opacity="0" stroke="#1A1919" stroke-width="7.875" stroke-linecap="round" stroke-linejoin="round" id="path873"/>
    <path d="M373.177,785.277 L369.682,787.897 C369.682,787.897 366.182,808.897 370.557,808.897 C374.932,808.897 610.302,778.267 610.302,778.267 C610.302,778.267 615.557,772.152 615.557,769.522 C615.557,766.897 611.182,759.027 611.182,759.027 L376.682,785.277" fill="#E6E2DC" id="path875"/>
    <path d="M373.177,785.277 L369.682,787.897 C369.682,787.897 366.182,808.897 370.557,808.897 C374.932,808.897 610.302,778.267 610.302,778.267 C610.302,778.267 615.557,772.152 615.557,769.522 C615.557,766.897 611.182,759.027 611.182,759.027 L376.682,785.277" fill-opacity="0" stroke="#1A1919" stroke-width="7.875" stroke-linecap="round" stroke-linejoin="round" id="path877"/>
    <path d="M84.433,729.277 L373.177,789.652 L611.182,759.027 L318.932,701.272 L80.058,726.652 L84.433,729.277" fill="#FFFFFE" id="path879"/>
    <path d="M84.433,729.277 L373.177,789.652 L611.182,759.027 L318.932,701.272 L80.058,726.652 z" fill-opacity="0" stroke="#1A1919" stroke-width="7.875" stroke-linecap="round" stroke-linejoin="round" id="path881"/>
    <path d="M381.932,764.267 C384.557,763.402 476.432,755.527 476.432,755.527 L345.182,728.397 M430.057,747.647 C430.057,747.647 375.802,753.772 371.432,753.772 M396.807,739.777 C396.807,739.777 364.432,745.027 357.432,745.902 M381.057,745.902 C381.057,745.902 436.182,757.267 442.307,757.267" fill-opacity="0" stroke="#1A1919" stroke-width="5.25" stroke-linecap="round" stroke-linejoin="round" id="path883"/>
    <path d="M20.887,455.002 L321.277,491.017 C328.272,491.052 330.883,495.442 334.353,500.707 L379.497,757.297 C379.497,757.297 380.342,762.557 380.318,767.807 L372.418,773.017 L365.418,772.982 C365.418,772.982 85.697,714.757 80.452,712.982 C75.213,711.207 72.188,706.527 70.007,701.557 C70.007,701.557 6.317,480.742 4.632,468.487 C2.942,456.232 11.697,454.522 11.697,454.522 C11.697,454.522 16.947,454.547 20.887,455.002" fill="#FFFFFE" id="path885"/>
    <path d="M365.418,772.982 C365.418,772.982 85.698,714.757 80.453,712.982 C75.213,711.207 72.188,706.527 70.008,701.557 C70.008,701.557 6.318,480.742 4.633,468.487 L18.808,474.212 C18.808,474.212 295.742,507.022 300.992,510.957 C306.242,514.892 365.418,772.982 365.418,772.982" fill="#E6E2DC" id="path887"/>
    <path d="M20.887,455.002 L321.277,491.017 C328.272,491.052 330.883,495.442 334.353,500.707 L379.497,757.297 C379.497,757.297 380.342,762.557 380.318,767.807 L372.418,773.017 L365.418,772.982 C365.418,772.982 85.697,714.757 80.452,712.982 C75.213,711.207 72.188,706.527 70.007,701.557 C70.007,701.557 6.317,480.742 4.632,468.487 C2.942,456.232 11.697,454.522 11.697,454.522 C11.697,454.522 16.947,454.547 20.887,455.002 z M3.937,469.402 C6.557,467.647 10.927,466.777 14.432,466.777 C17.932,466.777 299.677,500.022 307.552,501.767 M327.682,496.527 L320.677,500.022 M318.057,514.892 C318.057,514.892 365.302,760.772 365.302,763.402 C365.302,766.027 370.557,771.277 370.557,771.277" fill-opacity="0" stroke="#1A1919" stroke-width="7.875" stroke-linecap="round" stroke-linejoin="round" id="path889"/>
    <path d="M114.188,720.522 L116.813,738.897 L155.303,746.772 L153.562,728.402 L114.188,720.522" fill="#FFFFFE" id="path891"/>
    <path d="M114.188,720.522 L116.813,738.897 L155.303,746.772 L153.562,728.402 z" fill-opacity="0" stroke="#1A1919" stroke-width="7.875" stroke-linecap="round" stroke-linejoin="round" id="path893"/>
    <path d="M259.432,750.277 L262.057,765.147 L308.438,774.772 L306.682,759.897 L259.432,750.277" fill="#FFFFFE" id="path895"/>
    <path d="M259.432,750.277 L262.057,765.147 L308.438,774.772 L306.682,759.897 z" fill-opacity="0" stroke="#1A1919" stroke-width="7.875" stroke-linecap="round" stroke-linejoin="round" id="path897"/>
    <path d="M596.193,684.972 C601.193,689.972 617.443,721.222 613.693,748.722 L644.943,747.472 L626.193,678.722 C626.193,678.722 601.193,679.972 596.193,684.972" fill="#FFFFFE" id="path899"/>
    <path d="M596.193,684.972 C601.193,689.972 617.443,721.222 613.693,748.722 L644.943,747.472 L626.193,678.722 C626.193,678.722 601.193,679.972 596.193,684.972 z" fill-opacity="0" stroke="#1A1919" stroke-width="7.5" stroke-linecap="round" stroke-linejoin="round" id="path901"/>
    <path d="M613.693,748.722 C617.443,721.222 601.193,689.972 596.193,684.972 C592.443,686.222 551.193,678.722 543.693,674.972 C536.193,671.222 523.693,664.972 518.693,664.972 C513.693,664.972 482.443,677.472 473.693,681.222 L464.943,683.722 C464.943,683.722 441.193,686.222 441.193,694.972 C441.193,703.722 447.443,712.472 447.443,712.472 C447.443,712.472 446.193,733.722 443.693,743.722 C451.193,749.972 457.443,749.972 463.693,738.722 C469.943,727.472 477.443,715.392 477.443,715.392 L482.443,708.722 C481.193,711.222 477.443,734.972 477.443,734.972 C478.693,738.722 477.443,748.722 483.693,751.222 C489.943,753.722 496.193,748.722 496.193,748.722 C496.193,752.472 496.193,756.222 501.193,756.222 C506.193,756.222 516.193,752.472 524.943,737.472 C524.943,737.472 526.193,756.222 531.193,758.722 C538.693,757.472 543.693,758.722 549.943,741.222 C558.693,747.472 556.193,751.222 568.693,751.222 C581.193,751.222 587.443,749.972 587.443,749.972 C592.443,747.472 607.443,747.472 607.443,747.472 L613.693,748.722" fill="#F4BB9D" id="path903"/>
    <path d="M613.693,748.722 C617.443,721.222 601.193,689.972 596.193,684.972 C592.443,686.222 551.193,678.722 543.693,674.972 C536.193,671.222 523.693,664.972 518.693,664.972 C513.693,664.972 482.443,677.472 473.693,681.222 L464.943,683.722 C464.943,683.722 441.193,686.222 441.193,694.972 C441.193,703.722 447.443,712.472 447.443,712.472 C447.443,712.472 446.193,733.722 443.693,743.722 C451.193,749.972 457.443,749.972 463.693,738.722 C469.943,727.472 477.443,715.392 477.443,715.392 L482.443,708.722 C481.193,711.222 477.443,734.972 477.443,734.972 C478.693,738.722 477.443,748.722 483.693,751.222 C489.943,753.722 496.193,748.722 496.193,748.722 C496.193,752.472 496.193,756.222 501.193,756.222 C506.193,756.222 516.193,752.472 524.943,737.472 C524.943,737.472 526.193,756.222 531.193,758.722 C538.693,757.472 543.693,758.722 549.943,741.222 C558.693,747.472 556.193,751.222 568.693,751.222 C581.193,751.222 587.443,749.972 587.443,749.972 C592.443,747.472 607.443,747.472 607.443,747.472 z M468.693,682.472 C466.193,686.222 452.443,709.972 448.693,718.722 M518.693,677.472 C514.943,677.472 493.693,682.472 488.693,688.722 C483.693,694.972 482.443,702.472 482.443,708.722 M527.443,692.472 C522.443,694.972 511.193,702.472 508.693,706.222 C506.193,709.972 499.943,732.472 496.193,748.722 M552.443,704.972 C544.943,707.472 532.443,714.972 529.943,718.722 C527.443,722.472 524.943,737.472 524.943,737.472 M549.943,741.222 L553.693,732.472 L561.193,731.222" fill-opacity="0" stroke="#1A1919" stroke-width="7.5" stroke-linecap="round" stroke-linejoin="round" id="path905"/>
    <path d="M797.432,503.712 C793.682,501.212 766.182,521.212 753.682,557.462 C744.747,583.382 722.432,651.212 716.182,666.212 C713.682,666.212 706.182,672.462 706.182,672.462 C702.432,671.212 624.932,674.962 621.182,674.962 C624.932,678.712 634.932,719.962 627.432,758.712 L626.182,764.962 C643.682,763.712 753.508,753.087 769.932,738.712 C789.932,721.212 793.682,706.212 801.182,668.712 C811.182,648.712 817.432,634.962 813.682,628.712 C812.432,613.712 836.182,513.712 797.432,503.712" fill="#464D5A" id="path907"/>
    <path d="M797.432,503.712 C793.682,501.212 766.182,521.212 753.682,557.462 C744.747,583.382 722.432,651.212 716.182,666.212 C713.682,666.212 706.182,672.462 706.182,672.462 C702.432,671.212 624.932,674.962 621.182,674.962 C624.932,678.712 634.932,719.962 627.432,758.712 L626.182,764.962 C643.682,763.712 753.508,753.087 769.932,738.712 C789.932,721.212 793.682,706.212 801.182,668.712 C811.182,648.712 817.432,634.962 813.682,628.712 C812.432,613.712 836.182,513.712 797.432,503.712 z M718.682,672.462 C724.932,679.962 742.432,693.712 763.682,699.962" fill-opacity="0" stroke="#1A1919" stroke-width="7.5" stroke-linecap="round" stroke-linejoin="round" id="path909"/>
    <g id="g915">
      <path d="M819.932,90.377 C831.182,90.377 858.682,116.627 864.932,160.377 C871.182,204.127 864.932,235.377 853.682,266.627 C853.682,254.127 856.182,211.627 847.432,195.377 C847.432,201.627 852.432,236.627 849.932,261.627 C847.432,286.627 766.968,339.062 766.968,339.062 L689.932,260.377 L489.932,220.377 C483.682,216.627 469.932,176.627 468.682,145.377 C467.432,114.127 488.682,85.377 512.432,65.377 C536.182,45.377 623.682,-0.873 701.182,4.127 C778.682,9.127 812.432,74.127 819.932,90.377" fill="#2D2118" id="path911"/>
      <path d="M819.932,90.377 C831.182,90.377 858.682,116.627 864.932,160.377 C871.182,204.127 864.932,235.377 853.682,266.627 C853.682,254.127 856.182,211.627 847.432,195.377 C847.432,201.627 852.432,236.627 849.932,261.627 C847.432,286.627 766.968,339.062 766.968,339.062 L689.932,260.377 L489.932,220.377 C483.682,216.627 469.932,176.627 468.682,145.377 C467.432,114.127 488.682,85.377 512.432,65.377 C536.182,45.377 623.682,-0.873 701.182,4.127 C778.682,9.127 812.432,74.127 819.932,90.377 z" fill-opacity="0" stroke="#1A1919" stroke-width="7.5" stroke-linecap="round" stroke-linejoin="round" id="path913"/>
    </g>
    <path d="M715.312,414.537 C694.062,427.037 652.432,442.877 637.432,445.377 C622.432,447.877 608.682,445.377 596.182,445.377 C583.682,445.377 571.182,440.377 562.432,432.877 C508.682,394.127 479.932,322.877 478.682,307.877 C477.432,292.877 484.932,249.127 486.182,234.127 C487.432,219.127 486.182,192.877 487.432,185.377 C493.682,171.627 524.932,141.627 532.432,135.377 C524.932,150.377 518.682,184.127 518.682,184.127 C539.932,131.627 629.932,94.127 648.682,89.127 C637.432,152.877 663.682,206.627 669.932,209.127 C663.682,181.627 672.432,132.877 673.682,129.127 C688.682,159.127 753.682,221.627 763.682,224.127 C778.682,257.877 778.682,301.627 781.182,306.627 C786.182,302.877 798.682,274.127 798.682,272.877 C806.182,261.627 822.432,246.627 827.432,246.627 C859.932,244.127 848.682,282.877 839.932,306.627 C831.182,330.377 799.932,350.377 791.182,350.377 C782.432,350.377 778.682,347.877 779.932,340.377 L776.182,351.627 C774.932,355.377 762.432,374.127 754.932,382.877 C747.773,391.232 727.312,404.382 721.713,409.887 L715.312,414.537" fill="#F4BB9D" id="path917"/>
    <path d="M715.312,414.537 C694.062,427.037 652.432,442.877 637.432,445.377 C622.432,447.877 608.682,445.377 596.182,445.377 C583.682,445.377 571.182,440.377 562.432,432.877 C508.682,394.127 479.932,322.877 478.682,307.877 C477.432,292.877 484.932,249.127 486.182,234.127 C487.432,219.127 486.182,192.877 487.432,185.377 C493.682,171.627 524.932,141.627 532.432,135.377 C524.932,150.377 518.682,184.127 518.682,184.127 C539.932,131.627 629.932,94.127 648.682,89.127 C637.432,152.877 663.682,206.627 669.932,209.127 C663.682,181.627 672.432,132.877 673.682,129.127 C688.682,159.127 753.682,221.627 763.682,224.127 C778.682,257.877 778.682,301.627 781.182,306.627 C786.182,302.877 798.682,274.127 798.682,272.877 C806.182,261.627 822.432,246.627 827.432,246.627 C859.932,244.127 848.682,282.877 839.932,306.627 C831.182,330.377 799.932,350.377 791.182,350.377 C782.432,350.377 778.682,347.877 779.932,340.377 L776.182,351.627 C774.932,355.377 762.432,374.127 754.932,382.877 C747.773,391.232 727.312,404.382 721.713,409.887 z M629.932,55.377 C617.432,57.877 541.182,119.127 532.432,135.377 M679.932,99.127 C679.932,102.877 674.932,127.877 674.932,135.377 M798.682,226.627 C799.932,231.627 801.182,256.627 798.682,272.877 M724.932,156.627 C728.682,165.377 762.432,212.877 779.932,221.627 M546.182,341.207 C546.182,341.207 542.432,347.457 547.432,351.207 C552.432,354.957 588.633,358.237 609.932,356.207 C636.182,353.707 654.932,347.457 661.182,344.957 M799.932,311.627 C806.182,309.127 812.432,306.627 811.182,300.377 C809.932,294.127 808.682,291.627 808.682,287.877 C808.682,284.127 817.432,271.627 823.682,267.877 C829.932,264.127 834.932,274.127 831.182,289.127" fill-opacity="0" stroke="#1A1919" stroke-width="7.5" stroke-linecap="round" stroke-linejoin="round" id="path919"/>
    <path d="M537.083,249.127 C537.083,262.067 532.768,272.557 527.432,272.557 C522.112,272.557 517.787,262.067 517.787,249.127 C517.787,236.187 522.112,225.702 527.432,225.702 C532.768,225.702 537.083,236.187 537.083,249.127" fill="#1A1919" id="path921"/>
    <path d="M657.907,253.007 C657.907,265.942 653.587,276.432 648.263,276.432 C642.932,276.432 638.612,265.942 638.612,253.007 C638.612,240.067 642.932,229.577 648.263,229.577 C653.587,229.577 657.907,240.067 657.907,253.007" fill="#1A1919" id="path923"/>
    <path d="M516.532,178.107 C509.032,170.607 497.782,169.357 495.282,204.357 M682.122,170.702 C690.872,166.952 705.872,173.202 704.622,205.702" fill-opacity="0" stroke="#1A1919" stroke-width="7.5" stroke-linecap="round" stroke-linejoin="round" id="path925"/>
    <path d="M543.003,293.297 C543.003,304.472 529.673,313.532 513.237,313.532 C496.793,313.532 483.463,304.472 483.463,293.297 C483.463,282.117 496.793,273.052 513.237,273.052 C529.673,273.052 543.003,282.117 543.003,293.297" fill="#EB9174" id="path927"/>
    <path d="M699.557,296.632 C699.557,307.807 683.312,316.867 663.267,316.867 C643.222,316.867 626.977,307.807 626.977,296.632 C626.977,285.452 643.222,276.387 663.267,276.387 C683.312,276.387 699.557,285.452 699.557,296.632" fill="#EB9174" id="path929"/>
    <path d="M570.107,243.122 C559.362,255.822 540.802,280.252 545.682,294.902 C550.568,309.557 565.227,307.602 581.837,300.762" fill="#F4BB9D" id="path931"/>
    <path d="M570.107,243.122 C559.362,255.822 540.802,280.252 545.682,294.902 C550.568,309.557 565.227,307.602 581.837,300.762" fill-opacity="0" stroke="#1A1919" stroke-width="7.5" stroke-linecap="round" stroke-linejoin="round" id="path933"/>
  </g>
</svg>
